<svg version="1.1" viewBox="0.0 0.0 300.0 150.0" fill="none" stroke="none" stroke-linecap="square" stroke-miterlimit="10" xmlns:xlink="http://www.w3.org/1999/xlink" xmlns="http://www.w3.org/2000/svg"><clipPath id="p.0"><path d="m0 0l300.0 0l0 150.0l-300.0 0l0 -150.0z" clip-rule="nonzero"/></clipPath><g clip-path="url(#p.0)"><path fill="#ffffff" d="m0 0l300.0 0l0 150.0l-300.0 0z" fill-rule="evenodd"/><path fill="#000000" fill-opacity="0.0" d="m0 27.249344l297.98425 0l0 144.72441l-297.98425 0z" fill-rule="evenodd"/><path fill="#000000" d="m39.734467 131.10176l0 -106.23437l6.046875 0l0 106.23437l-6.046875 0zm3.578125 -50.531242l0 -5.578125l16.203125 0l-1.453125 5.578125l-14.75 0zm20.1875 50.531242l0 -106.23437l6.046875 0l0 106.23437l-6.046875 0zm20.920486 0l0 -106.23437l6.046875 0l0 106.23437l-6.046875 0zm20.915497 0l0 -106.23437l6.046875 0l0 106.23437l-6.046875 0zm3.578125 -50.531242l0 -5.578125l16.203125 0l-1.453125 5.578125l-14.75 0zm20.1875 50.531242l0 -106.23437l6.046875 0l0 106.23437l-6.046875 0zm20.920486 0l0 -106.23437l6.046875 0l0 106.23437l-6.046875 0zm31.274872 0.65625q-6.3125 -0.53125 -9.171875 -4.1093674q-2.84375 -3.578125 -3.109375 -10.953125q-0.078125 -4.578125 -0.109375 -8.15625q-0.03125 -3.59375 0.03125 -7.203125q0.078125 -3.625 0.203125 -8.28125l5.84375 0q-0.265625 6.109375 -0.265625 12.25q0 6.140625 0.265625 12.125q0.140625 4.109375 1.59375 6.265625q1.46875 2.15625 4.71875 2.6875l0 5.3749924zm5.578125 -0.0625l0 -5.3749924q2.984375 -0.59375 4.3125 -2.75q1.328125 -2.15625 1.46875 -6.140625q0.1875 -4.125 0.21875 -7.234375q0.046875 -3.125 -0.03125 -6.4375q-0.0625 -3.328125 -0.1875 -7.90625q-0.078125 -5.515625 -1.28125 -9.125q-1.1875 -3.625 -5.171875 -4.6875l-5.96875 -1.53125q-4.65625 -1.125 -7.015625 -3.484375q-2.34375 -2.359375 -3.21875 -6.34375q-0.859375 -3.984375 -1.0625 -9.953125q-0.0625 -4.65625 0 -10.46875q0.078125 -5.8125 0.140625 -11.1875q0.0625 -7.296875 2.84375 -10.8125q2.796875 -3.53125 9.234375 -4.0625l0 5.390625q-3.109375 0.53125 -4.484375 2.6875q-1.359375 2.15625 -1.546875 6.203125q-0.265625 5.515625 -0.234375 11.0625q0.03125 5.53125 0.234375 11.1875q0.125 6.703125 1.28125 9.890625q1.171875 3.1875 5.359375 4.171875l5.765625 1.40625q4.65625 1.125 7.0 3.546875q2.359375 2.421875 3.21875 6.40625q0.875 3.984375 1.0 9.703125q0.140625 4.703125 0.140625 7.828125q0 3.125 -0.03125 6.046875q-0.03125 2.921875 -0.171875 6.96875q-0.203125 7.296875 -2.984375 10.890625q-2.78125 3.5781174 -8.828125 4.1093674zm5.515625 -70.78124q0.1875 -5.578125 0.21875 -11.21875q0.046875 -5.640625 -0.15625 -11.21875q-0.140625 -3.921875 -1.46875 -6.078125q-1.328125 -2.15625 -4.25 -2.75l0 -5.375q5.921875 0.59375 8.640625 4.109375q2.71875 3.515625 2.921875 10.828125q0.125 3.84375 0.125 9.53125q0 5.671875 -0.125 12.171875l-5.90625 0zm19.182678 70.18749l0 -106.23437l6.046875 0l0 106.23437l-6.046875 0zm17.321747 -106.23437l6.375 0l5.390625 60.625l3.3125 36.046875l-5.4375 0l-9.640625 -96.671875zm10.171875 100.65625l7.359375 0l3.796875 -40.03125l5.234375 -60.625l6.515625 0l-10.953125 106.23437l-11.234375 0l-0.71875 -5.5781174z" fill-rule="nonzero"/><path fill="#cc4125" d="m83.10236 15.15748l0 0c0 -2.530943 1.92482 -4.582677 4.2992096 -4.582677l0 0c1.1402206 0 2.2337418 0.48281574 3.040001 1.3422346c0.80625916 0.85941887 1.2592163 2.0250406 1.2592163 3.2404423l0 0c0 2.530943 -1.9248276 4.582678 -4.299217 4.582678l0 0c-2.3743896 0 -4.2992096 -2.051735 -4.2992096 -4.582678z" fill-rule="evenodd"/><path stroke="#cc4125" stroke-width="1.0" stroke-linejoin="round" stroke-linecap="butt" d="m83.10236 15.15748l0 0c0 -2.530943 1.92482 -4.582677 4.2992096 -4.582677l0 0c1.1402206 0 2.2337418 0.48281574 3.040001 1.3422346c0.80625916 0.85941887 1.2592163 2.0250406 1.2592163 3.2404423l0 0c0 2.530943 -1.9248276 4.582678 -4.299217 4.582678l0 0c-2.3743896 0 -4.2992096 -2.051735 -4.2992096 -4.582678z" fill-rule="evenodd"/><path fill="#cc4125" d="m148.6273 137.7454l0 0c0 -2.5309448 1.92482 -4.582672 4.2992096 -4.582672l0 0c1.140213 0 2.2337341 0.4828186 3.0399933 1.3422241c0.80625916 0.8594208 1.2592163 2.0250397 1.2592163 3.240448l0 0c0 2.5309448 -1.92482 4.582672 -4.2992096 4.582672l0 0c-2.3743896 0 -4.2992096 -2.0517273 -4.2992096 -4.582672z" fill-rule="evenodd"/><path stroke="#cc4125" stroke-width="1.0" stroke-linejoin="round" stroke-linecap="butt" d="m148.6273 137.7454l0 0c0 -2.5309448 1.92482 -4.582672 4.2992096 -4.582672l0 0c1.140213 0 2.2337341 0.4828186 3.0399933 1.3422241c0.80625916 0.8594208 1.2592163 2.0250397 1.2592163 3.240448l0 0c0 2.5309448 -1.92482 4.582672 -4.2992096 4.582672l0 0c-2.3743896 0 -4.2992096 -2.0517273 -4.2992096 -4.582672z" fill-rule="evenodd"/><path fill="#cc4125" d="m210.53543 16.908136l0 0c0 -2.530943 1.92482 -4.582677 4.2992096 -4.582677l0 0c1.1402283 0 2.2337494 0.4828167 3.0400085 1.3422346c0.80625916 0.85941887 1.2592163 2.0250406 1.2592163 3.2404423l0 0c0 2.530943 -1.9248352 4.582678 -4.299225 4.582678l0 0c-2.3743896 0 -4.2992096 -2.051735 -4.2992096 -4.582678z" fill-rule="evenodd"/><path stroke="#cc4125" stroke-width="1.0" stroke-linejoin="round" stroke-linecap="butt" d="m210.53543 16.908136l0 0c0 -2.530943 1.92482 -4.582677 4.2992096 -4.582677l0 0c1.1402283 0 2.2337494 0.4828167 3.0400085 1.3422346c0.80625916 0.85941887 1.2592163 2.0250406 1.2592163 3.2404423l0 0c0 2.530943 -1.9248352 4.582678 -4.299225 4.582678l0 0c-2.3743896 0 -4.2992096 -2.051735 -4.2992096 -4.582678z" fill-rule="evenodd"/></g></svg>